<?xml version="1.0" encoding="UTF-8" standalone="no"?>
<svg
   xmlns:dc="http://purl.org/dc/elements/1.1/"
   xmlns:cc="http://creativecommons.org/ns#"
   xmlns:rdf="http://www.w3.org/1999/02/22-rdf-syntax-ns#"
   xmlns:svg="http://www.w3.org/2000/svg"
   xmlns="http://www.w3.org/2000/svg"
   xmlns:sodipodi="http://sodipodi.sourceforge.net/DTD/sodipodi-0.dtd"
   xmlns:inkscape="http://www.inkscape.org/namespaces/inkscape"
   version="1.1"
   preserveAspectRatio="xMidYMid meet"
   viewBox="860 357 125 164"
   id="svg102"
   sodipodi:docname="diablo.svg"
   inkscape:export-filename="/home/nlamirault/diablo.png"
   inkscape:export-xdpi="90"
   inkscape:export-ydpi="90"
   inkscape:version="0.92.1 r">
  <metadata
     id="metadata108">
    <rdf:RDF>
      <cc:Work
         rdf:about="">
        <dc:format>image/svg+xml</dc:format>
        <dc:type
           rdf:resource="http://purl.org/dc/dcmitype/StillImage" />
      </cc:Work>
    </rdf:RDF>
  </metadata>
  <defs
     id="defs106" />
  <sodipodi:namedview
     pagecolor="#ffffff"
     bordercolor="#666666"
     borderopacity="1"
     objecttolerance="10"
     gridtolerance="10"
     guidetolerance="10"
     inkscape:pageopacity="0"
     inkscape:pageshadow="2"
     inkscape:window-width="1916"
     inkscape:window-height="1002"
     id="namedview104"
     showgrid="false"
     inkscape:zoom="5.7560976"
     inkscape:cx="101.04404"
     inkscape:cy="105.60703"
     inkscape:window-x="1680"
     inkscape:window-y="46"
     inkscape:window-maximized="0"
     inkscape:current-layer="svg102" />
  <g
     data-item-type="image"
     data-item="Image"
     data-logo-item=""
     id="logo__item--logo_0"
     class="logo__item">
    <g
       class="logo__item__inner"
       transform="translate(859.0767594647602 356) scale(0.8528784833175449 0.8528784833175449) rotate(0 0 0)"
       id="g99">
      <g
         id="g97">
        <path
           fill-rule="evenodd"
           clip-rule="evenodd"
           fill="#F26D4E"
           d="M74.9,15.4c-2.9,0-5.3-2.4-5.3-5.3c0-3,2.4-5.3,5.3-5.3   c2.9,0,5.3,2.4,5.3,5.3C80.2,13,77.9,15.4,74.9,15.4L74.9,15.4z"
           data-part-id="logo__item--logo_0__0"
           id="path7" />
        <path
           fill-rule="evenodd"
           clip-rule="evenodd"
           fill="#F26D4E"
           d="M32.7,32.9c-2.1,2.1-5.5,2.1-7.5,0c-2.1-2.1-2.1-5.5,0-7.5   c2.1-2.1,5.5-2.1,7.5,0C34.7,27.4,34.7,30.8,32.7,32.9L32.7,32.9z"
           data-part-id="logo__item--logo_0__1"
           id="path9" />
        <path
           fill-rule="evenodd"
           clip-rule="evenodd"
           fill="#F26D4E"
           d="M15.2,75.2c0,3-2.4,5.3-5.3,5.3c-3,0-5.3-2.4-5.3-5.3   c0-2.9,2.4-5.3,5.3-5.3C12.8,69.8,15.2,72.2,15.2,75.2L15.2,75.2z"
           data-part-id="logo__item--logo_0__2"
           id="path11" />
        <path
           fill-rule="evenodd"
           clip-rule="evenodd"
           fill="#F26D4E"
           d="M32.7,117.4c2.1,2.1,2.1,5.5,0,7.5c-2.1,2.1-5.5,2.1-7.5,0   c-2.1-2.1-2.1-5.5,0-7.5C27.2,115.3,30.6,115.3,32.7,117.4L32.7,117.4z"
           data-part-id="logo__item--logo_0__3"
           id="path13" />
        <path
           fill-rule="evenodd"
           clip-rule="evenodd"
           fill="#F26D4E"
           d="M74.9,134.9c3,0,5.3,2.4,5.3,5.3c0,2.9-2.4,5.3-5.3,5.3   c-2.9,0-5.3-2.4-5.3-5.3C69.6,137.3,72,134.9,74.9,134.9L74.9,134.9z"
           data-part-id="logo__item--logo_0__4"
           id="path15" />
        <path
           fill-rule="evenodd"
           clip-rule="evenodd"
           fill="#F26D4E"
           d="M117.2,117.4c2.1-2.1,5.5-2.1,7.5,0c2.1,2.1,2.1,5.5,0,7.5   c-2.1,2.1-5.5,2.1-7.5,0C115.1,122.9,115.1,119.5,117.2,117.4L117.2,117.4z"
           data-part-id="logo__item--logo_0__5"
           id="path17" />
        <path
           fill-rule="evenodd"
           clip-rule="evenodd"
           fill="#F26D4E"
           d="M134.7,75.2c0-2.9,2.4-5.3,5.3-5.3c2.9,0,5.3,2.4,5.3,5.3   c0,3-2.4,5.3-5.3,5.3C137.1,80.5,134.7,78.1,134.7,75.2L134.7,75.2z"
           data-part-id="logo__item--logo_0__6"
           id="path19" />
        <path
           fill-rule="evenodd"
           clip-rule="evenodd"
           fill="#F26D4E"
           d="M117.2,32.9c-2.1-2.1-2.1-5.5,0-7.5c2.1-2.1,5.5-2.1,7.5,0   c2.1,2.1,2.1,5.5,0,7.5C122.6,35,119.3,35,117.2,32.9L117.2,32.9z"
           data-part-id="logo__item--logo_0__7"
           id="path21" />
        <path
           fill-rule="evenodd"
           clip-rule="evenodd"
           fill="#5BC0CC"
           d="M74.9,19.7c-0.7,0-1.4-0.1-2-0.2l-2.8,6.7h9.7L77,19.4   C76.3,19.6,75.6,19.7,74.9,19.7L74.9,19.7z"
           data-part-id="logo__item--logo_0__8"
           id="path23" />
        <path
           fill-rule="evenodd"
           clip-rule="evenodd"
           fill="#5BC0CC"
           d="M69,17.6c-0.7-0.6-1.4-1.3-1.9-2L41.6,26.2h23.9L69,17.6L69,17.6z   "
           data-part-id="logo__item--logo_0__9"
           id="path25" />
        <path
           fill-rule="evenodd"
           clip-rule="evenodd"
           fill="#5BC0CC"
           d="M82.7,15.6c-0.5,0.8-1.2,1.4-1.9,2l3.5,8.6h23.9L82.7,15.6   L82.7,15.6z"
           data-part-id="logo__item--logo_0__10"
           id="path27" />
        <path
           fill-rule="evenodd"
           clip-rule="evenodd"
           fill="#4F4E60"
           d="M114.2,35.9c-0.5-0.5-0.9-1-1.3-1.6l-21.4,8.9l4.5,10.9l10.9,4.5   l8.9-21.4C115.2,36.8,114.7,36.4,114.2,35.9L114.2,35.9z"
           data-part-id="logo__item--logo_0__11"
           id="path29" />
        <path
           fill-rule="evenodd"
           clip-rule="evenodd"
           fill="#5BC0CC"
           d="M130.4,75.2c0-0.7,0.1-1.4,0.2-2l-6.7-2.8V80l6.7-2.8   C130.5,76.6,130.4,75.9,130.4,75.2L130.4,75.2z"
           data-part-id="logo__item--logo_0__12"
           id="path31" />
        <path
           fill-rule="evenodd"
           clip-rule="evenodd"
           fill="#5BC0CC"
           d="M132.5,69.2c0.6-0.7,1.2-1.4,2-1.9l-10.6-25.5v23.9L132.5,69.2   L132.5,69.2z"
           data-part-id="logo__item--logo_0__13"
           id="path33" />
        <path
           fill-rule="evenodd"
           clip-rule="evenodd"
           fill="#5BC0CC"
           d="M134.5,83c-0.8-0.5-1.4-1.2-2-1.9l-8.6,3.5v23.9L134.5,83   L134.5,83z"
           data-part-id="logo__item--logo_0__14"
           id="path35" />
        <path
           fill-rule="evenodd"
           clip-rule="evenodd"
           fill="#4F4E60"
           d="M114.2,114.4c0.5-0.5,1-0.9,1.6-1.3l-8.9-21.4l-10.9,4.5   l-4.5,10.9l21.4,8.9C113.2,115.4,113.7,114.9,114.2,114.4L114.2,114.4z"
           data-part-id="logo__item--logo_0__15"
           id="path37" />
        <path
           fill-rule="evenodd"
           clip-rule="evenodd"
           fill="#5BC0CC"
           d="M74.9,130.7c0.7,0,1.4,0.1,2.1,0.2l2.8-6.7h-9.7l2.8,6.7   C73.5,130.7,74.2,130.7,74.9,130.7L74.9,130.7z"
           data-part-id="logo__item--logo_0__16"
           id="path39" />
        <path
           fill-rule="evenodd"
           clip-rule="evenodd"
           fill="#5BC0CC"
           d="M80.8,132.7c0.7,0.6,1.4,1.2,1.9,2l25.5-10.6H84.4L80.8,132.7   L80.8,132.7z"
           data-part-id="logo__item--logo_0__17"
           id="path41" />
        <path
           fill-rule="evenodd"
           clip-rule="evenodd"
           fill="#5BC0CC"
           d="M67.1,134.7c0.5-0.8,1.2-1.4,1.9-2l-3.5-8.6H41.6L67.1,134.7   L67.1,134.7z"
           data-part-id="logo__item--logo_0__18"
           id="path43" />
        <path
           fill-rule="evenodd"
           clip-rule="evenodd"
           fill="#4F4E60"
           d="M35.7,114.4c0.5,0.5,0.9,1,1.3,1.6l21.4-8.9l-4.5-10.9l-10.9-4.5   l-8.9,21.4C34.6,113.5,35.2,113.9,35.7,114.4L35.7,114.4z"
           data-part-id="logo__item--logo_0__19"
           id="path45" />
        <path
           fill-rule="evenodd"
           clip-rule="evenodd"
           fill="#5BC0CC"
           d="M19.4,75.2c0,0.7-0.1,1.4-0.2,2.1l6.7,2.8v-9.7l-6.7,2.8   C19.3,73.8,19.4,74.5,19.4,75.2L19.4,75.2z"
           data-part-id="logo__item--logo_0__20"
           id="path47" />
        <path
           fill-rule="evenodd"
           clip-rule="evenodd"
           fill="#5BC0CC"
           d="M17.4,81.1c-0.6,0.7-1.3,1.4-2,1.9l10.6,25.5V84.6L17.4,81.1   L17.4,81.1z"
           data-part-id="logo__item--logo_0__21"
           id="path49" />
        <path
           fill-rule="evenodd"
           clip-rule="evenodd"
           fill="#5BC0CC"
           d="M15.4,67.3c0.8,0.5,1.4,1.2,2,1.9l8.6-3.5V41.8L15.4,67.3   L15.4,67.3z"
           data-part-id="logo__item--logo_0__22"
           id="path51" />
        <path
           fill-rule="evenodd"
           clip-rule="evenodd"
           fill="#4F4E60"
           d="M35.7,35.9c-0.5,0.5-1,0.9-1.6,1.3l8.9,21.4l10.9-4.5l4.5-10.9   L37,34.3C36.6,34.9,36.2,35.4,35.7,35.9L35.7,35.9z"
           data-part-id="logo__item--logo_0__23"
           id="path53" />
        <polygon
           fill-rule="evenodd"
           clip-rule="evenodd"
           fill="#5BC0CC"
           points="30.2,39.1 30.2,63.9 39,60.3 30.2,39.1"
           data-part-id="logo__item--logo_0__24"
           id="polygon55" />
        <polygon
           fill-rule="evenodd"
           clip-rule="evenodd"
           fill="#A5B9B8"
           points="30.2,68.5 30.2,81.8 40.6,86.1 45.2,75.2 40.6,64.2    30.2,68.5  "
           data-part-id="logo__item--logo_0__25"
           id="polygon57" />
        <polygon
           fill-rule="evenodd"
           clip-rule="evenodd"
           fill="#5BC0CC"
           points="30.2,86.4 30.2,111.3 39,90 30.2,86.4"
           data-part-id="logo__item--logo_0__26"
           id="polygon59" />
        <polygon
           fill-rule="evenodd"
           clip-rule="evenodd"
           fill="#5BC0CC"
           points="62.3,105.5 69.3,102.6 59.4,98.5 62.3,105.5"
           data-part-id="logo__item--logo_0__27"
           id="polygon61" />
        <polygon
           fill-rule="evenodd"
           clip-rule="evenodd"
           fill="#F26D4E"
           points="74.9,100.3 92.7,92.9 100,75.2 92.7,57.4 74.9,50    57.1,57.4 49.8,75.2 57.1,92.9 74.9,100.3  "
           data-part-id="logo__item--logo_0__28"
           id="polygon63" />
        <polygon
           fill-rule="evenodd"
           clip-rule="evenodd"
           fill="#5BC0CC"
           points="98.3,90.6 105.2,87.7 102.3,80.7 98.3,90.6"
           data-part-id="logo__item--logo_0__29"
           id="polygon65" />
        <polygon
           fill-rule="evenodd"
           clip-rule="evenodd"
           fill="#A5B9B8"
           points="109.2,86.1 119.6,81.8 119.6,68.5 109.2,64.2 104.7,75.2    109.2,86.1  "
           data-part-id="logo__item--logo_0__30"
           id="polygon67" />
        <polygon
           fill-rule="evenodd"
           clip-rule="evenodd"
           fill="#5BC0CC"
           points="105.2,62.6 98.3,59.7 102.3,69.6 105.2,62.6"
           data-part-id="logo__item--logo_0__31"
           id="polygon69" />
        <polygon
           fill-rule="evenodd"
           clip-rule="evenodd"
           fill="#5BC0CC"
           points="69.3,47.7 62.3,44.8 59.4,51.8 69.3,47.7"
           data-part-id="logo__item--logo_0__32"
           id="polygon71" />
        <polygon
           fill-rule="evenodd"
           clip-rule="evenodd"
           fill="#5BC0CC"
           points="38.8,30.5 60,39.2 63.7,30.5 38.8,30.5"
           data-part-id="logo__item--logo_0__33"
           id="polygon73" />
        <polygon
           fill-rule="evenodd"
           clip-rule="evenodd"
           fill="#A5B9B8"
           points="64,40.9 74.9,45.4 85.8,40.9 81.5,30.5 68.3,30.5    64,40.9  "
           data-part-id="logo__item--logo_0__34"
           id="polygon75" />
        <polygon
           fill-rule="evenodd"
           clip-rule="evenodd"
           fill="#5BC0CC"
           points="80.5,47.7 90.4,51.8 87.5,44.8 80.5,47.7"
           data-part-id="logo__item--logo_0__35"
           id="polygon77" />
        <polygon
           fill-rule="evenodd"
           clip-rule="evenodd"
           fill="#5BC0CC"
           points="110.8,60.3 119.6,63.9 119.6,39.1 110.8,60.3"
           data-part-id="logo__item--logo_0__36"
           id="polygon79" />
        <polygon
           fill-rule="evenodd"
           clip-rule="evenodd"
           fill="#5BC0CC"
           points="119.6,86.4 110.8,90 119.6,111.3 119.6,86.4"
           data-part-id="logo__item--logo_0__37"
           id="polygon81" />
        <polygon
           fill-rule="evenodd"
           clip-rule="evenodd"
           fill="#5BC0CC"
           points="90.4,98.5 80.5,102.6 87.5,105.5 90.4,98.5"
           data-part-id="logo__item--logo_0__38"
           id="polygon83" />
        <polygon
           fill-rule="evenodd"
           clip-rule="evenodd"
           fill="#A5B9B8"
           points="74.9,104.9 64,109.4 68.3,119.9 81.5,119.9 85.8,109.4    74.9,104.9  "
           data-part-id="logo__item--logo_0__39"
           id="polygon85" />
        <polygon
           fill-rule="evenodd"
           clip-rule="evenodd"
           fill="#5BC0CC"
           points="60,111.1 38.8,119.9 63.7,119.9 60,111.1"
           data-part-id="logo__item--logo_0__40"
           id="polygon87" />
        <polygon
           fill-rule="evenodd"
           clip-rule="evenodd"
           fill="#5BC0CC"
           points="111,119.9 89.8,111.1 86.1,119.9 111,119.9"
           data-part-id="logo__item--logo_0__41"
           id="polygon89" />
        <polygon
           fill-rule="evenodd"
           clip-rule="evenodd"
           fill="#5BC0CC"
           points="89.8,39.2 111,30.5 86.1,30.5 89.8,39.2"
           data-part-id="logo__item--logo_0__42"
           id="polygon91" />
        <polygon
           fill-rule="evenodd"
           clip-rule="evenodd"
           fill="#5BC0CC"
           points="51.6,59.7 44.6,62.6 47.5,69.6 51.6,59.7"
           data-part-id="logo__item--logo_0__43"
           id="polygon93" />
        <polygon
           fill-rule="evenodd"
           clip-rule="evenodd"
           fill="#5BC0CC"
           points="44.6,87.7 51.6,90.6 47.5,80.7 44.6,87.7"
           data-part-id="logo__item--logo_0__44"
           id="polygon95" />
      </g>
    </g>
  </g>
</svg>
